<svg width="220" height="72" viewBox="0 0 220 72" fill="none" xmlns="http://www.w3.org/2000/svg">
  <defs>
    <linearGradient id="softpixel_text" x1="0" y1="0" x2="220" y2="72" gradientUnits="userSpaceOnUse">
      <stop offset="0" stop-color="#ff4d2a"/>
      <stop offset="0.5" stop-color="#f2c230"/>
      <stop offset="1" stop-color="#62c245"/>
    </linearGradient>
    <linearGradient id="softpixel_icon" x1="0" y1="0" x2="72" y2="72" gradientUnits="userSpaceOnUse">
      <stop offset="0" stop-color="#ff5a2f"/>
      <stop offset="1" stop-color="#e5c741"/>
    </linearGradient>
  </defs>

  <rect x="0" y="8" width="56" height="56" rx="10" fill="#0f1722"/>
  <path d="M14 44V20h3v24h-3Zm8-24h3v24h-3V20Zm8 0h3v24h-3V20Z" fill="url(#softpixel_icon)"/>
  <path d="M35 18h4l2 14c.2 1.2 1.4 1.7 2.4 1l2.6-1.9V18h4v28h-4v-9.3l-3.8 2.7c-2.7 1.9-6.5.5-7-2.8L35 18Z" fill="url(#softpixel_icon)"/>
  <circle cx="44" cy="16" r="4" fill="#ff6f3a"/>

  <text x="64" y="41" font-family="Segoe UI, Arial, sans-serif" font-size="34" font-weight="700" fill="url(#softpixel_text)">
    SoftPixel
  </text>
  <text x="66" y="58" font-family="Segoe UI, Arial, sans-serif" font-size="12" letter-spacing="3" fill="#f4f7fb">
    RESTAURANT
  </text>
</svg>
